# xmcd
#
# Track frame offsets: 
#        150
#        11227
#        33530
#        51562
#        63635
#        73775
#        98860
#        110942
#        123375
#        135397
#        148705
#        160157
#        171747
#        185532
#        200875
#        216130
#        225490
#        241795
#        256625
#        269135
#        277880
#        292955
#        305057
#        326340
#        337297
#
# Disc length: 4791 seconds
#
# Revision: 7
# Processed by: cddbd v1.5.2PL0 Copyright (c) Steve Scherf et al.
# Submitted via: ExactAudioCopy v0.99pb3
#
DISCID=9712b519
DTITLE=Various Artist - 50 Disco, Reggea, Soul and Blues Greatest CD2
DYEAR=1997
DGENRE=Blues
TTITLE0=John Lee Hooker - Boom Boom
TTITLE1=Howlin' Wolf - Wang dong doodle
TTITLE2=Muddy Waters - Baby please don't go
TTITLE3=John Lee Hooker - Whisky and Women
TTITLE4=Screaming Jay Hawkins - I put a Spell on you
TTITLE5=Howlin' Wolf - Little red Rooster
TTITLE6=Bo Biddley - I'm a Man
TTITLE7=Elmore James - The Sky is crying
TTITLE8=John Lee Hooker - I'm in the Mood
TTITLE9=B.B.King - Please Love
TTITLE10=Lightnin' Hopkins - Tell me pretty Mama
TTITLE11=B.B.King - Everyday I have the Blues
TTITLE12=Etta James - All I could do was cry
TTITLE13=Albert Collins - Frosty
TTITLE14=Elmore James - I believe
TTITLE15=Canned Heat - Rollin' and Tumblin' (Harmonica Version)
TTITLE16=B.B.King - The other Night Blues
TTITLE17=Elmore James - It hurts me too
TTITLE18=Muddy Waters - Mean Mistreater
TTITLE19=Canned Heat - Pretty Thing
TTITLE20=Steely Dan - Deacon Blues
TTITLE21=Canned Heat - Got my Mojo working
TTITLE22=Lightnin' Hopkins - Jake Head Boogie
TTITLE23=B.B.King - Catfish Blues
TTITLE24=Jimi Hendrix - People's People
EXTD=YEAR: 1997
EXTT0=
EXTT1=
EXTT2=
EXTT3=
EXTT4=
EXTT5=
EXTT6=
EXTT7=
EXTT8=
EXTT9=
EXTT10=
EXTT11=
EXTT12=
EXTT13=
EXTT14=
EXTT15=
EXTT16=
EXTT17=
EXTT18=
EXTT19=
EXTT20=
EXTT21=
EXTT22=
EXTT23=
EXTT24=
PLAYORDER=
